<svg xmlns="http://www.w3.org/2000/svg" width="500" height="500" viewBox="0 0 500 500" fill="none"><metadata><rdf:RDF xmlns:rdf="http://www.w3.org/1999/02/22-rdf-syntax-ns#" xmlns:dc="http://purl.org/dc/elements/1.1/"><rdf:Description><dc:creator>RealFaviconGenerator</dc:creator><dc:source>https://realfavicongenerator.net</dc:source></rdf:Description></rdf:RDF></metadata><path d="M376.433 258.646C376.433 189.094 320.052 132.712 250.5 132.712C180.949 132.712 124.567 189.094 124.567 258.646C124.567 328.197 180.949 384.579 250.5 384.579C320.052 384.579 376.433 328.197 376.433 258.646ZM230.1 185.479C230.1 174.212 239.234 165.079 250.5 165.079C261.766 165.079 270.899 174.212 270.9 185.479V250.196L301.508 280.804C309.474 288.771 309.474 301.687 301.508 309.654C293.541 317.62 280.625 317.62 272.658 309.654L236.075 273.07C232.25 269.245 230.1 264.056 230.1 258.646V185.479ZM108.033 79.5959C116 71.6294 128.916 71.6295 136.883 79.5959C144.849 87.5625 144.849 100.479 136.883 108.445L100.3 145.029C92.3332 152.995 79.4167 152.995 71.4502 145.029C63.4838 137.062 63.4837 124.146 71.4502 116.179L108.033 79.5959ZM364.117 79.5959C372.084 71.6295 385 71.6294 392.967 79.5959L429.55 116.179C437.516 124.146 437.516 137.062 429.55 145.029C421.583 152.995 408.667 152.995 400.7 145.029L364.117 108.445C356.151 100.479 356.151 87.5625 364.117 79.5959ZM417.233 258.646C417.233 350.73 342.584 425.378 250.5 425.378C158.416 425.378 83.7673 350.73 83.7673 258.646C83.7673 166.562 158.416 91.913 250.5 91.913C342.584 91.913 417.233 166.562 417.233 258.646Z" fill="#C54913"></path></svg>